#!OML:ASF F:\VICON\USERDATA\INSTALL\rory3\rory3.ASF
:FULLY-SPECIFIED
:DEGREES
282
root 4.83281 17.2977 2.56801 15.0827 -22.3628 -4.70746
lowerback -1.73286 2.92042 2.24645
upperback -5.00514 3.91346 0.172379
thorax -4.051 1.86518 -1.1427
lowerneck -11.0796 1.26565 0.0863568
upperneck 38.8087 1.23132 1.06299
head 15.4856 0.585702 0.609478
rclavicle -1.56543e-015 1.41137e-014
rhumerus 29.2944 1.82369 -31.8356
rradius 109.145
rwrist -47.3715
rhand -6.92621 -44.0247
rfingers 7.12502
rthumb 18.9418 -73.1224
lclavicle -1.56543e-015 1.41137e-014
lhumerus 44.5659 15.8661 19.2785
lradius 71.1956
lwrist 61.8276
lhand -26.897 -25.1679
lfingers 7.12502
lthumb -0.320651 4.8116
rfemur -43.9158 -8.90127 7.93803
rtibia 40.0473
rfoot 21.3619 -20.6847
rtoes 4.33698
lfemur -28.991 4.95171 -26.5154
ltibia 31.6348
lfoot -16.1513 11.8058
ltoes 10.0622
283
root 4.83592 17.2956 2.56821 15.0784 -22.222 -4.78358
lowerback -1.71094 2.86692 2.30941
upperback -4.95043 3.84302 0.190782
thorax -4.00591 1.8291 -1.15717
lowerneck -11.2401 1.21744 0.060753
upperneck 38.9004 1.19148 0.992004
head 15.5715 0.554353 0.579774
rclavicle 1.50207e-014 1.09332e-014
rhumerus 29.189 2.1239 -31.8644
rradius 109.016
rwrist -47.2972
rhand -6.99682 -43.7326
rfingers 7.12502
rthumb 18.8739 -72.8369
lclavicle 1.50207e-014 1.09332e-014
lhumerus 44.5481 15.5725 19.616
lradius 71.4191
lwrist 62.0821
lhand -27.0491 -26.0462
lfingers 7.12502
lthumb -0.467483 3.93304
rfemur -44.3455 -8.88612 8.26212
rtibia 39.9636
rfoot 21.6351 -20.4194
rtoes 4.64127
lfemur -29.0085 5.06291 -26.4444
ltibia 31.6352
lfoot -16.0944 11.6418
ltoes 9.52203
284
root 4.83987 17.2939 2.57301 14.9377 -22.1049 -4.71429
lowerback -1.64145 2.80573 2.24188
upperback -4.89464 3.76233 0.196283
thorax -3.99407 1.79212 -1.11506
lowerneck -11.1646 1.19377 0.0600318
upperneck 38.8599 1.20518 0.863507
head 15.5339 0.542414 0.525861
rclavicle 2.28602e-015 -8.15017e-015
rhumerus 29.0916 2.41356 -31.9203
rradius 109.038
rwrist -47.2011
rhand -7.44021 -43.752
rfingers 7.12502
rthumb 18.4474 -72.8973
lclavicle 2.28602e-015 -8.15017e-015
lhumerus 44.551 15.2781 20.037
lradius 71.7518
lwrist 62.4175
lhand -26.5029 -27.1332
lfingers 7.12502
lthumb 0.0600455 2.84654
rfemur -44.6496 -8.97351 8.44629
rtibia 39.8747
rfoot 21.8983 -20.0661
rtoes 4.66352
lfemur -28.8761 5.09457 -26.5299
ltibia 31.6506
lfoot -16.1889 11.4496
ltoes 10.0465
285
root 4.8441 17.2913 2.57637 14.8043 -22.0144 -4.58022
lowerback -1.50534 2.7418 2.06932
upperback -4.94196 3.68027 0.205106
thorax -4.13396 1.75558 -1.01804
lowerneck -11.0463 1.13986 0.103688
upperneck 38.887 1.18561 0.663977
head 15.5218 0.512448 0.428544
rclavicle 2.48481e-015 5.96354e-016
rhumerus 28.8846 2.81617 -31.9215
rradius 109.09
rwrist -47.1332
rhand -7.57142 -43.9
rfingers 7.12502
rthumb 18.3212 -73.0572
lclavicle 2.48481e-015 5.96354e-016
lhumerus 44.3646 14.7818 20.2933
lradius 71.9997
lwrist 62.534
lhand -26.1448 -29.6414
lfingers 7.12502
lthumb 0.405849 0.337923
rfemur -44.9254 -8.99269 8.52493
rtibia 39.7587
rfoot 21.66 -20.3408
rtoes 6.61951
lfemur -28.7572 5.15216 -26.712
ltibia 31.6362
lfoot -16.3163 11.1995
ltoes 11.1117
286
root 4.8487 17.2863 2.57619 14.7177 -21.8661 -4.56765
lowerback -1.44789 2.66937 2.04131
upperback -4.9283 3.58616 0.252247
thorax -4.15965 1.7104 -0.955079
lowerneck -10.9965 1.12495 0.103822
upperneck 38.8518 1.19991 0.566013
head 15.4929 0.505131 0.38816
rclavicle 1.86112e-014 3.97569e-016
rhumerus 28.7572 3.2355 -31.8236
rradius 108.983
rwrist -47.0173
rhand -7.50769 -43.6818
rfingers 7.12502
rthumb 18.3825 -72.8332
lclavicle 1.86112e-014 3.97569e-016
lhumerus 44.1778 14.3066 20.5249
lradius 72.0777
lwrist 62.5559
lhand -26.3321 -32.6485
lfingers 7.12502
lthumb 0.22504 -2.66892
rfemur -45.2227 -8.98501 8.73863
rtibia 39.6191
rfoot 22.1121 -20.0094
rtoes 6.82131
lfemur -28.6455 5.1556 -26.7502
ltibia 31.5594
lfoot -16.2173 11.1321
ltoes 10.8474
287
root 4.8571 17.287 2.58041 14.519 -21.6174 -4.46613
lowerback -1.5004 2.56009 2.04077
upperback -4.74014 3.43625 0.254821
thorax -3.9379 1.63995 -0.941279
lowerneck -11.1494 1.20889 0.0952527
upperneck 38.8023 1.33086 0.570328
head 15.5038 0.560548 0.413464
rclavicle -8.46077e-014 -3.57812e-015
rhumerus 28.8436 3.4786 -31.814
rradius 108.792
rwrist -46.9147
rhand -7.5301 -43.3931
rfingers 7.12502
rthumb 18.3609 -72.5466
lclavicle -8.46077e-014 -3.57812e-015
lhumerus 44.2922 14.225 21.1007
lradius 72.3334
lwrist 62.5412
lhand -26.2375 -31.4595
lfingers 7.12502
lthumb 0.316349 -1.48
rfemur -45.4057 -9.18654 8.90318
rtibia 39.4441
rfoot 23.0732 -19.0094
rtoes 5.15284
lfemur -28.4223 4.98662 -26.8425
ltibia 31.4567
lfoot -15.9408 11.267
ltoes 9.10431
